<?xml version="1.0" encoding="utf-8"?>
<!-- Generator: Adobe Illustrator 22.1.0, SVG Export Plug-In . SVG Version: 6.00 Build 0)  -->
<svg version="1.1" id="Слой_1" xmlns="http://www.w3.org/2000/svg" xmlns:xlink="http://www.w3.org/1999/xlink" x="0px" y="0px"
	 viewBox="0 0 12 14" style="enable-background:new 0 0 12 14;" xml:space="preserve">
<style type="text/css">
	.st0{fill:#FCFAFA;}
</style>
<path class="st0" d="M8.5,4c0,1.4-1.1,2.5-2.5,2.5S3.5,5.4,3.5,4S4.6,1.5,6,1.5S8.5,2.6,8.5,4z M10,4c0,2.2-1.8,4-4,4S2,6.2,2,4
	s1.8-4,4-4S10,1.8,10,4z M4,9.2c-2.1,0-3.8,1.7-3.8,3.8v1h1.5v-1c0-1.2,1-2.2,2.2-2.2h4c1.2,0,2.2,1,2.2,2.2v1h1.5v-1
	c0-2.1-1.7-3.8-3.8-3.8H4z"/>
</svg>
